<svg width="42" height="42" viewBox="0 0 42 42" fill="none" xmlns="http://www.w3.org/2000/svg">
<g clip-path="url(#clip0_739_34)">
<path d="M20.9999 42C9.4207 42 0 32.579 0 21.0001C0 15.1825 2.32701 9.77106 6.55216 5.76269C10.4656 2.04707 15.597 0 21.0001 0C32.5793 0 42 9.42099 42 20.9999C42 31.5016 34.1615 40.4507 23.7654 41.8176C22.858 41.9393 21.9273 41.9999 21 41.9999L20.9999 42ZM20.9999 1.53086C15.9906 1.53086 11.2332 3.42786 7.60478 6.87292C3.68746 10.5897 1.52986 15.6066 1.52986 21.0009C1.52986 31.7361 10.2647 40.4716 21.0006 40.4716C21.8607 40.4716 22.7236 40.4149 23.5654 40.3032C33.2032 39.0363 40.47 30.7388 40.47 21.0018C40.47 10.2654 31.7363 1.53106 20.9993 1.53106L20.9999 1.53086Z" fill="#4C59FE"/>
<path d="M20.9999 42C9.4207 42 0 32.579 0 21.0001C0 15.1825 2.32701 9.77102 6.55216 5.76265L6.73274 5.59151L6.98001 5.55929C7.89184 5.44038 8.82039 5.38037 9.73931 5.38037C21.3185 5.38037 30.7392 14.8014 30.7392 26.3802C30.7392 32.2001 28.4143 37.6099 24.1926 41.6148L24.0125 41.7854L23.7669 41.8182C22.8579 41.9393 21.9272 42 20.9999 42ZM7.4247 7.04572C3.62074 10.7441 1.52929 15.69 1.52929 21.0004C1.52929 31.7356 10.2641 40.4711 21 40.4711C21.7762 40.4711 22.5553 40.425 23.3182 40.3333C27.1189 36.6382 29.208 31.6935 29.208 26.3809C29.208 15.6457 20.4733 6.91019 9.73734 6.91019C8.96888 6.91019 8.19155 6.95626 7.4247 7.04572Z" fill="#4C59FE"/>
<path d="M27.494 27.6744C15.9148 27.6744 6.49414 18.2534 6.49414 6.6745C6.49414 6.49559 6.49692 6.31333 6.4997 6.1333L8.02998 6.15775C8.02721 6.32889 8.02443 6.50336 8.02443 6.6745C8.02443 17.4097 16.7581 26.1452 27.4951 26.1452C32.4126 26.1452 37.1062 24.3071 40.7107 20.9687L41.7492 22.0911C37.8619 25.6917 32.7988 27.6754 27.4947 27.6754L27.494 27.6744Z" fill="#4C59FE"/>
<path d="M13.2595 40.4268C10.0796 36.6534 8.32812 31.8536 8.32812 26.9105C8.32812 15.3313 17.7491 5.91064 29.328 5.91064C31.8846 5.91064 34.3833 6.36572 36.7531 7.26365L36.2113 8.69394C34.0149 7.86213 31.6983 7.44039 29.3279 7.44039C18.5927 7.44039 9.85719 16.174 9.85719 26.9111C9.85719 31.4941 11.4802 35.9438 14.4286 39.441L13.2595 40.4268Z" fill="#4C59FE"/>
<path d="M20.5816 5.68436C22.372 5.97273 23.5899 7.65746 23.3015 9.44834C23.0132 11.2387 21.3279 12.4566 19.5376 12.1682C17.7467 11.8799 16.5293 10.1946 16.8177 8.40425C17.106 6.61337 18.7913 5.39602 20.5816 5.68436Z" fill="#4C59FE"/>
<path d="M12.9174 30.7766C12.9174 32.5902 11.4466 34.0605 9.63352 34.0605C7.81987 34.0605 6.34961 32.5897 6.34961 30.7766C6.34961 28.9629 7.82044 27.4927 9.63352 27.4927C11.4477 27.4932 12.9174 28.9635 12.9174 30.7766Z" fill="#4C59FE"/>
<path d="M15.2935 18.3772C15.2935 20.7515 13.3688 22.6764 10.9944 22.6764C8.62019 22.6764 6.69531 20.7516 6.69531 18.3772C6.69531 16.003 8.62005 14.0781 10.9944 14.0781C13.3682 14.0781 15.2935 16.0029 15.2935 18.3772Z" fill="#4C59FE"/>
<path d="M36.8228 26.7869C36.8228 30.5698 33.7566 33.6358 29.9739 33.6358C26.1915 33.6358 23.125 30.5696 23.125 26.7869C23.125 23.0041 26.1917 19.938 29.9739 19.938C33.7568 19.938 36.8228 23.0041 36.8228 26.7869Z" fill="#4C59FE"/>
</g>
<defs>
<clipPath id="clip0_739_34">
<rect width="42" height="42" fill="white"/>
</clipPath>
</defs>
</svg>
