<svg width="377" height="377" viewBox="0 0 377 377" fill="none" xmlns="http://www.w3.org/2000/svg">
<rect width="377" height="377" fill="white"/>
<g clip-path="url(#clip0_740_34)">
<path d="M160.441 245.751C155.824 245.751 152.244 245.374 149.888 244.62C147.533 243.867 145.931 242.265 145.083 239.815C144.235 237.365 143.858 233.691 143.858 228.791V228.132C138.582 229.922 132.174 230.864 124.825 230.864C124.731 234.727 124.354 237.742 123.6 239.909C122.752 242.359 121.151 243.961 118.795 244.809C116.439 245.657 112.859 246.222 108.242 246.411V250.085H167.79V245.751H160.441Z" fill="black"/>
<path d="M160.441 103.948V108C155.824 108.094 152.244 108.659 149.888 109.507C147.533 110.355 145.931 112.051 145.083 114.407C144.235 116.762 143.858 120.531 143.858 125.525V217.014C137.922 219.087 132.08 220.123 126.615 220.123C126.05 220.123 125.485 220.123 124.919 220.123C124.919 220.123 124.919 220.123 124.825 220.123V125.619C124.825 120.625 124.448 116.857 123.6 114.501C122.752 112.146 121.151 110.45 118.795 109.602C116.439 108.754 112.859 108.188 108.242 108.094V104.042C111.069 104.042 119.455 104.042 119.455 104.042H148.569C153.28 104.042 157.049 104.042 160.347 104.042L160.441 103.948Z" fill="black"/>
<path d="M171.653 222.479V224.74C171.653 223.61 171.653 223.233 171.653 222.479ZM176.364 224.74V210.23C176.364 215.036 176.364 219.841 176.364 224.74Z" fill="black"/>
<path d="M176.364 175.555V210.134C176.364 198.357 176.458 187.05 176.364 175.555Z" fill="black"/>
<path d="M190.874 250.085C186.634 250.085 183.902 250.085 180.133 250.085V245.751C185.033 245.562 187.765 244.903 191.063 243.772C195.114 242.359 198.318 240.286 200.673 237.365C200.673 237.365 200.673 237.365 200.768 237.271C201.333 236.517 201.898 235.763 202.464 234.821C202.464 234.727 202.558 234.632 202.652 234.444L202.464 233.973L201.333 230.958L176.364 166.699V210.229C176.364 215.034 176.364 219.84 176.364 224.739V274.677C176.364 279.576 176.835 283.439 177.683 286.266C178.531 289.093 180.321 291.071 182.96 292.202C185.598 293.332 189.649 294.086 194.926 294.369V298.42C192.476 298.42 189.273 298.42 185.315 298.42H163.738C160.158 298.42 157.52 298.42 155.07 298.42V294.369C159.687 294.086 163.173 293.332 165.623 292.202C167.978 291.071 169.58 289.093 170.428 286.266C171.276 283.439 171.653 279.576 171.653 274.677V224.739C171.653 223.609 171.653 223.232 171.653 222.478C171.088 218.049 170.334 215.129 169.203 213.809C169.203 213.809 169.203 213.809 169.203 213.715C167.884 212.208 165.717 212.396 162.796 214.375C157.708 217.955 152.432 221.065 146.779 223.703C146.779 223.703 146.59 223.703 146.496 223.797C145.742 224.174 144.894 224.457 144.046 224.833C138.864 226.718 132.551 227.66 125.013 227.66C124.165 227.66 123.412 227.66 122.564 227.66C110.597 227.283 100.045 224.362 90.9052 218.897C81.2004 213.056 73.5684 204.576 68.1978 193.552C62.8272 182.528 60.0947 169.243 60.0947 153.696C60.0947 138.15 62.8272 124.864 68.3862 113.369C73.9453 101.874 81.6715 93.0174 91.3763 86.6104C101.081 80.2033 112.388 76.9998 125.013 76.9998C133.964 76.9998 141.408 78.3189 147.155 80.9571C152.997 83.5953 158.085 86.7046 162.608 90.285C165.34 92.3579 167.413 92.5463 168.826 91.0388C170.24 89.437 171.276 85.7624 171.842 79.9206H175.705V126.937H170.994C170.051 121.095 169.109 116.384 168.355 112.898C167.507 109.412 166.565 106.491 165.34 104.041C164.21 101.592 162.608 99.1418 160.723 96.6921C156.483 91.133 151.207 87.0815 144.8 84.5375C138.393 81.9935 131.609 80.7686 124.542 80.7686C117.853 80.7686 111.822 82.4646 106.452 85.7624C101.081 89.1543 96.4643 93.9596 92.5069 100.178C88.6439 106.491 85.6288 114.029 83.5559 122.886C81.3888 131.742 80.3524 141.73 80.3524 152.754C80.3524 163.778 81.483 174.331 83.8386 183.093C86.1941 191.856 89.3976 199.299 93.5434 205.33C97.6891 211.36 102.589 215.882 108.242 218.897C112.67 221.253 117.381 222.761 122.281 223.326C123.129 223.326 123.883 223.514 124.731 223.514C125.296 223.514 125.956 223.514 126.521 223.514C132.08 223.514 137.828 222.478 143.763 220.499C144.423 220.311 145.083 220.028 145.742 219.84C145.931 219.84 146.025 219.745 146.213 219.651C152.715 217.201 157.802 213.338 161.477 207.968C164.492 204.01 166.565 199.676 167.696 195.059C168.167 193.269 168.544 191.196 169.015 188.841C169.674 185.166 170.899 180.832 171.465 175.744C171.842 171.787 171.088 166.51 170.24 164.155C169.392 161.799 167.79 160.103 165.434 159.255C163.079 158.407 159.498 157.842 154.882 157.748V153.696C157.237 153.696 160.064 153.696 163.55 153.696C167.319 153.696 170.522 153.696 173.914 153.696C176.458 153.696 179.097 153.696 183.148 153.696C186.352 153.696 188.801 153.696 191.251 153.696L236.195 272.227L280.196 153.696H304.034C308.745 153.696 312.609 153.696 315.812 153.696V157.748C311.195 157.842 307.709 158.407 305.259 159.255C302.904 160.103 301.302 161.799 300.454 164.155C299.606 166.51 299.229 170.279 299.229 175.273V276.749C299.229 281.649 299.606 285.324 300.454 287.773C301.302 290.223 302.904 291.825 305.259 292.673C307.615 293.521 311.195 294.086 315.812 294.275V298.326C312.609 298.326 308.84 298.326 304.129 298.326H274.92C270.303 298.326 266.534 298.326 263.613 298.326V294.275C268.23 293.992 271.716 293.427 274.166 292.673C276.616 291.919 278.123 290.223 278.971 287.773C279.819 285.324 280.196 281.649 280.196 276.749V166.981L230.918 299.363H227.621L209.153 251.875L208.588 250.085H190.686H190.874Z" fill="black"/>
</g>
<defs>
<clipPath id="clip0_740_34">
<rect width="256" height="222.363" fill="white" transform="translate(60 77)"/>
</clipPath>
</defs>
</svg>
