<svg width="34" height="34" viewBox="0 0 34 34" fill="none" xmlns="http://www.w3.org/2000/svg">
<g clip-path="url(#clip0_143_365)">
<path d="M16.8424 0.269897C7.54061 0.269897 0 7.81051 0 17.1123C0 26.4142 7.54061 33.9548 16.8424 33.9548C26.1443 33.9548 33.6849 26.4142 33.6849 17.1123C33.6849 7.81051 26.1443 0.269897 16.8424 0.269897ZM25.5965 10.9238L22.6051 25.2046C22.5689 25.3773 22.4899 25.5382 22.3753 25.6724C22.2607 25.8066 22.1143 25.9099 21.9493 25.9727C21.7844 26.0356 21.6064 26.056 21.4315 26.032C21.2567 26.0081 21.0907 25.9406 20.9487 25.8357L16.5976 22.6211L13.9615 25.108C13.927 25.1406 13.8863 25.1659 13.8419 25.1826C13.7975 25.1993 13.7502 25.2069 13.7028 25.2051C13.6554 25.2033 13.6088 25.1921 13.5658 25.1721C13.5228 25.1521 13.4842 25.1238 13.4522 25.0887L13.3956 25.0264L13.8536 20.5938L22.1093 13.0508C22.1501 13.0136 22.1755 12.9624 22.1805 12.9073C22.1854 12.8523 22.1695 12.7974 22.136 12.7535C22.1025 12.7096 22.0537 12.6798 21.9993 12.6701C21.9449 12.6604 21.8888 12.6714 21.8421 12.701L11.2841 19.3834L6.73697 17.8562C6.61607 17.8156 6.51069 17.7386 6.4353 17.6357C6.35991 17.5328 6.3182 17.4091 6.3159 17.2816C6.31359 17.1541 6.3508 17.029 6.42242 16.9234C6.49404 16.8179 6.59656 16.7371 6.71592 16.6921L24.5071 9.99009C24.6443 9.93844 24.7929 9.92461 24.9373 9.95005C25.0817 9.97548 25.2166 10.0392 25.328 10.1347C25.4393 10.2301 25.523 10.3537 25.5702 10.4925C25.6174 10.6313 25.6265 10.7803 25.5965 10.9238Z" fill="#0D1BC5"/>
</g>
<defs>
<clipPath id="clip0_143_365">
<rect width="33.6849" height="33.6849" fill="white" transform="translate(0 0.269897)"/>
</clipPath>
</defs>
</svg>
