<svg width="34" height="34" viewBox="0 0 34 34" fill="none" xmlns="http://www.w3.org/2000/svg">
<g clip-path="url(#clip0_37_1114)">
<path d="M16.932 0C7.58073 0 0 7.58073 0 16.932C0 26.2834 7.58073 33.8641 16.932 33.8641C26.2834 33.8641 33.8641 26.2834 33.8641 16.932C33.8641 7.58073 26.2834 0 16.932 0ZM25.7327 10.7106L22.7254 25.0674C22.689 25.241 22.6096 25.4027 22.4944 25.5377C22.3792 25.6726 22.2319 25.7764 22.0661 25.8396C21.9003 25.9027 21.7213 25.9232 21.5455 25.8992C21.3698 25.8751 21.2029 25.8073 21.0602 25.7018L16.6859 22.4701L14.0357 24.9703C14.001 25.003 13.9602 25.0285 13.9155 25.0452C13.8709 25.062 13.8233 25.0697 13.7757 25.0679C13.728 25.0661 13.6812 25.0548 13.638 25.0347C13.5947 25.0146 13.5559 24.9861 13.5238 24.9508L13.4669 24.8882L13.9273 20.432L22.2269 12.8489C22.268 12.8115 22.2935 12.76 22.2985 12.7047C22.3034 12.6493 22.2875 12.5942 22.2538 12.55C22.22 12.5059 22.171 12.4759 22.1163 12.4662C22.0616 12.4564 22.0053 12.4675 21.9583 12.4972L11.3441 19.2152L6.77282 17.6799C6.65127 17.6391 6.54533 17.5616 6.46954 17.4582C6.39375 17.3548 6.35182 17.2304 6.3495 17.1022C6.34718 16.974 6.38459 16.8482 6.45659 16.7421C6.52859 16.636 6.63166 16.5548 6.75165 16.5096L24.6374 9.7719C24.7754 9.71998 24.9248 9.70608 25.07 9.73165C25.2152 9.75722 25.3508 9.82132 25.4627 9.91725C25.5747 10.0132 25.6588 10.1374 25.7063 10.277C25.7537 10.4165 25.7629 10.5663 25.7327 10.7106Z" fill="white"/>
</g>
<defs>
<clipPath id="clip0_37_1114">
<rect width="33.8641" height="33.8641" fill="white"/>
</clipPath>
</defs>
</svg>
