<svg width="35" height="34" viewBox="0 0 35 34" fill="none" xmlns="http://www.w3.org/2000/svg">
<g clip-path="url(#clip0_37_1116)">
<path d="M17.7961 0C8.4448 0 0.864075 7.58073 0.864075 16.932C0.864075 26.2834 8.4448 33.8641 17.7961 33.8641C27.1474 33.8641 34.7282 26.2834 34.7282 16.932C34.7282 7.58073 27.1474 0 17.7961 0ZM26.8153 22.6797H24.6667C24.434 22.6799 24.2042 22.6277 23.9944 22.527C23.7847 22.4262 23.6003 22.2795 23.4551 22.0976C22.8108 21.2887 21.5414 19.8543 20.2086 19.2382C20.1314 19.202 20.0463 19.1859 19.9613 19.1914C19.8762 19.1968 19.7939 19.2236 19.7219 19.2693C19.65 19.315 19.5907 19.378 19.5496 19.4527C19.5084 19.5273 19.4868 19.6112 19.4866 19.6964V21.8214C19.4866 21.9341 19.4645 22.0457 19.4213 22.1498C19.3782 22.2539 19.315 22.3486 19.2353 22.4283C19.1557 22.508 19.0611 22.5712 18.9569 22.6143C18.8528 22.6575 18.7412 22.6797 18.6285 22.6797H17.635C16.343 22.6797 13.5607 21.8932 11.3438 18.6637C9.45477 15.9122 8.61273 13.7798 8.1217 12.0509C8.09316 11.9496 8.08848 11.843 8.10805 11.7396C8.12761 11.6361 8.17089 11.5386 8.23447 11.4547C8.29805 11.3708 8.38022 11.3028 8.47452 11.256C8.56881 11.2092 8.67268 11.1849 8.77795 11.1849H10.9515C11.1683 11.1847 11.3794 11.2546 11.5534 11.384C11.7274 11.5134 11.855 11.6955 11.9171 11.9033C12.3213 13.2551 13.3682 16.1714 15.2187 17.6235C15.2751 17.668 15.3429 17.6957 15.4143 17.7035C15.4857 17.7112 15.5579 17.6987 15.6226 17.6674C15.6872 17.6361 15.7418 17.5872 15.7799 17.5263C15.8181 17.4655 15.8384 17.3951 15.8385 17.3233V13.9193C15.8385 13.2465 15.5469 12.5735 15.0919 12.0475C15.0263 11.972 14.9838 11.8793 14.9695 11.7804C14.9551 11.6815 14.9696 11.5805 15.011 11.4896C15.0525 11.3986 15.1192 11.3215 15.2033 11.2674C15.2874 11.2134 15.3852 11.1846 15.4852 11.1846H18.8362C19.0088 11.1846 19.1743 11.2531 19.2963 11.3752C19.4184 11.4972 19.4869 11.6627 19.4869 11.8352V16.4204C19.4869 16.4868 19.5052 16.5519 19.5398 16.6086C19.5743 16.6653 19.6238 16.7113 19.6828 16.7418C19.7417 16.7722 19.808 16.7858 19.8742 16.7811C19.9404 16.7764 20.004 16.7536 20.0581 16.7152C20.6732 16.2773 21.2 15.6305 21.6846 14.9034C22.2944 13.9888 23.0386 12.4769 23.4119 11.6923C23.4841 11.5403 23.598 11.4119 23.7403 11.322C23.8826 11.2321 24.0474 11.1844 24.2157 11.1844H26.5862C26.6852 11.1844 26.7826 11.2096 26.8691 11.2577C26.9556 11.3059 27.0283 11.3753 27.0805 11.4594C27.1326 11.5435 27.1624 11.6396 27.1671 11.7385C27.1717 11.8373 27.151 11.9358 27.107 12.0244C26.5088 13.2242 25.3437 15.4252 24.2474 16.7166C24.0904 16.9023 24.0136 17.1426 24.0337 17.385C24.0538 17.6273 24.1693 17.8517 24.3547 18.0089C25.0694 18.6196 26.185 19.7484 27.3878 21.6288C27.4542 21.7317 27.4916 21.8506 27.4961 21.9729C27.5006 22.0953 27.4721 22.2167 27.4135 22.3242C27.3549 22.4317 27.2685 22.5215 27.1632 22.584C27.0579 22.6466 26.9377 22.6796 26.8153 22.6797Z" fill="white"/>
</g>
<defs>
<clipPath id="clip0_37_1116">
<rect width="33.8641" height="33.8641" fill="white" transform="translate(0.864075)"/>
</clipPath>
</defs>
</svg>
