<svg width="35" height="34" viewBox="0 0 35 34" fill="none" xmlns="http://www.w3.org/2000/svg">
<g clip-path="url(#clip0_143_367)">
<path d="M17.4479 0.269897C8.14608 0.269897 0.605469 7.81051 0.605469 17.1123C0.605469 26.4142 8.14608 33.9548 17.4479 33.9548C26.7497 33.9548 34.2903 26.4142 34.2903 17.1123C34.2903 7.81051 26.7497 0.269897 17.4479 0.269897ZM26.4193 22.8295H24.2821C24.0506 22.8298 23.8221 22.7779 23.6134 22.6777C23.4048 22.5774 23.2214 22.4315 23.077 22.2506C22.436 21.4459 21.1734 20.0191 19.8476 19.4063C19.7708 19.3703 19.6862 19.3543 19.6016 19.3597C19.517 19.3651 19.4351 19.3918 19.3635 19.4372C19.292 19.4826 19.233 19.5454 19.1921 19.6196C19.1512 19.6939 19.1296 19.7773 19.1294 19.8621V21.9758C19.1295 22.0879 19.1074 22.1989 19.0645 22.3025C19.0216 22.4061 18.9588 22.5002 18.8795 22.5795C18.8003 22.6588 18.7061 22.7217 18.6026 22.7646C18.499 22.8075 18.388 22.8295 18.2759 22.8295H17.2876C16.0025 22.8295 13.2349 22.0472 11.0297 18.8348C9.1507 16.0979 8.31312 13.9768 7.82469 12.257C7.79629 12.1562 7.79164 12.0502 7.81111 11.9473C7.83057 11.8445 7.87361 11.7475 7.93686 11.664C8.00011 11.5805 8.08184 11.5129 8.17564 11.4663C8.26943 11.4198 8.37275 11.3956 8.47747 11.3956H10.6395C10.8552 11.3955 11.0652 11.4649 11.2382 11.5936C11.4113 11.7224 11.5382 11.9036 11.6 12.1102C12.0021 13.4549 13.0434 16.3557 14.8841 17.8002C14.9402 17.8444 15.0077 17.872 15.0787 17.8797C15.1498 17.8874 15.2215 17.875 15.2859 17.8438C15.3502 17.8127 15.4044 17.764 15.4424 17.7035C15.4804 17.643 15.5006 17.573 15.5006 17.5015V14.1155C15.5006 13.4463 15.2106 12.7769 14.758 12.2536C14.6928 12.1786 14.6505 12.0864 14.6362 11.988C14.622 11.8896 14.6363 11.7891 14.6775 11.6987C14.7188 11.6082 14.7852 11.5315 14.8688 11.4777C14.9524 11.4239 15.0497 11.3953 15.1492 11.3953H18.4825C18.6542 11.3953 18.8188 11.4635 18.9402 11.5849C19.0616 11.7062 19.1298 11.8708 19.1298 12.0425V16.6034C19.1298 16.6695 19.148 16.7342 19.1823 16.7906C19.2167 16.847 19.2659 16.8928 19.3246 16.9231C19.3832 16.9534 19.4491 16.9669 19.515 16.9622C19.5808 16.9576 19.6441 16.9349 19.698 16.8966C20.3098 16.4611 20.8338 15.8176 21.3158 15.0944C21.9224 14.1846 22.6626 12.6808 23.0339 11.9003C23.1058 11.7491 23.2191 11.6214 23.3606 11.532C23.5022 11.4426 23.6661 11.3951 23.8336 11.3951H26.1915C26.29 11.3951 26.3868 11.4202 26.4728 11.468C26.5589 11.5159 26.6313 11.585 26.6831 11.6687C26.735 11.7523 26.7647 11.8479 26.7693 11.9462C26.7739 12.0446 26.7533 12.1425 26.7095 12.2307C26.1145 13.4241 24.9556 15.6135 23.865 16.898C23.7089 17.0827 23.6325 17.3218 23.6525 17.5628C23.6725 17.8039 23.7873 18.0271 23.9718 18.1835C24.6827 18.7909 25.7924 19.9138 26.9889 21.7842C27.0549 21.8866 27.0921 22.0048 27.0966 22.1266C27.1011 22.2483 27.0727 22.369 27.0144 22.4759C26.9561 22.5829 26.8701 22.6722 26.7654 22.7344C26.6607 22.7966 26.5411 22.8295 26.4193 22.8295Z" fill="#0D1BC5"/>
</g>
<defs>
<clipPath id="clip0_143_367">
<rect width="33.6849" height="33.6849" fill="white" transform="translate(0.605469 0.269897)"/>
</clipPath>
</defs>
</svg>
