<svg width="34" height="34" viewBox="0 0 34 34" fill="none" xmlns="http://www.w3.org/2000/svg">
<g clip-path="url(#clip0_143_369)">
<path d="M17.5142 8.68323C16.075 8.68331 14.663 9.07538 13.4297 9.81734C12.1965 10.5593 11.1886 11.6231 10.5143 12.8946C9.84 14.1661 9.52473 15.5973 9.60235 17.0344C9.67998 18.4716 10.1475 19.8604 10.9549 21.0519L10.1806 24.0391L13.2939 23.3127C14.3333 23.9667 15.5105 24.3702 16.7325 24.4913C17.9546 24.6123 19.188 24.4477 20.3355 24.0103C21.483 23.5729 22.5132 22.8748 23.3446 21.971C24.1761 21.0673 24.7861 19.9826 25.1264 18.8027C25.4668 17.6228 25.5283 16.3799 25.306 15.1722C25.0837 13.9644 24.5837 12.8249 23.8454 11.8435C23.1072 10.8621 22.151 10.0658 21.0522 9.51732C19.9535 8.96887 18.7423 8.68333 17.5142 8.68323ZM21.4103 20.9325C20.3021 21.4523 17.9883 21.1811 15.5507 19.095C13.1131 17.0089 12.4878 14.7647 12.8299 13.5895C13.172 12.4144 14.5161 12.1972 14.7697 12.2534C15.0232 12.3095 16.2912 14.3196 16.1184 14.5541C15.9456 14.7885 15.1111 15.6232 15.1111 15.6232C15.1111 15.6232 15.0759 16.4771 16.6429 17.8182C18.21 19.1593 19.0483 18.9926 19.0483 18.9926C19.0483 18.9926 19.7439 18.0387 19.9489 17.8322C20.1538 17.6256 22.3358 18.5678 22.4304 18.8096C22.525 19.0515 22.5182 20.413 21.41 20.9325H21.4103Z" fill="#0D1BC5"/>
<path d="M17.0534 0.269897C7.75155 0.269897 0.210938 7.81051 0.210938 17.1123C0.210938 26.4142 7.75155 33.9548 17.0534 33.9548C26.3552 33.9548 33.8958 26.4142 33.8958 17.1123C33.8958 7.81051 26.3552 0.269897 17.0534 0.269897ZM17.5139 26.1882C15.9329 26.1905 14.3761 25.7998 12.9836 25.0512L7.88872 26.323L9.17921 21.3361C8.13932 19.5042 7.73201 17.3807 8.02027 15.2941C8.30853 13.2074 9.2763 11.2739 10.7739 9.7925C12.2715 8.31115 14.2155 7.36451 16.3051 7.09901C18.3948 6.83352 20.5137 7.26396 22.3342 8.32375C24.1546 9.38355 25.5752 11.0136 26.3761 12.9619C27.177 14.9102 27.3136 17.0681 26.7649 19.1018C26.2161 21.1356 25.0126 22.9318 23.3403 24.2128C21.6681 25.4937 19.6204 26.188 17.5139 26.1882Z" fill="#0D1BC5"/>
</g>
<defs>
<clipPath id="clip0_143_369">
<rect width="33.6849" height="33.6849" fill="white" transform="translate(0.210938 0.269897)"/>
</clipPath>
</defs>
</svg>
