<svg width="35" height="34" viewBox="0 0 35 34" fill="none" xmlns="http://www.w3.org/2000/svg">
<g clip-path="url(#clip0_37_1118)">
<path d="M18.1231 8.45807C16.6762 8.45815 15.2566 8.8523 14.0168 9.59821C12.777 10.3441 11.7638 11.4136 11.0859 12.6919C10.408 13.9702 10.0911 15.4089 10.1691 16.8537C10.2472 18.2985 10.7172 19.6947 11.5288 20.8925L10.7504 23.8957L13.8803 23.1654C14.9252 23.8229 16.1087 24.2285 17.3372 24.3502C18.5658 24.4719 19.8058 24.3064 20.9594 23.8667C22.113 23.427 23.1486 22.7251 23.9845 21.8166C24.8204 20.908 25.4336 19.8176 25.7758 18.6314C26.118 17.4452 26.1798 16.1957 25.9563 14.9815C25.7328 13.7674 25.2301 12.6218 24.488 11.6352C23.7458 10.6486 22.7845 9.84798 21.6799 9.2966C20.5753 8.74523 19.3577 8.45817 18.1231 8.45807ZM22.0399 20.7726C20.9258 21.2951 18.5997 21.0224 16.1491 18.9252C13.6985 16.8281 13.0699 14.5719 13.4139 13.3905C13.7578 12.209 15.109 11.9908 15.364 12.0472C15.6189 12.1036 16.8935 14.1244 16.7198 14.3601C16.5462 14.5959 15.7072 15.4349 15.7072 15.4349C15.7072 15.4349 15.6718 16.2934 17.2472 17.6416C18.8225 18.9899 19.6653 18.8223 19.6653 18.8223C19.6653 18.8223 20.3647 17.8633 20.5707 17.6557C20.7767 17.4481 22.9703 18.3952 23.0654 18.6383C23.1605 18.8815 23.1537 20.2502 22.0396 20.7726H22.0399Z" fill="white"/>
<path d="M17.6602 0C8.30888 0 0.728149 7.58073 0.728149 16.932C0.728149 26.2834 8.30888 33.8641 17.6602 33.8641C27.0115 33.8641 34.5922 26.2834 34.5922 16.932C34.5922 7.58073 27.0115 0 17.6602 0ZM18.1232 26.0562C16.5338 26.0585 14.9687 25.6658 13.5687 24.9132L8.44678 26.1917L9.74413 21.1783C8.69871 19.3366 8.28923 17.2018 8.57903 15.1041C8.86882 13.0063 9.84174 11.0625 11.3473 9.57327C12.8529 8.08403 14.8072 7.13236 16.908 6.86545C19.0088 6.59854 21.139 7.03127 22.9691 8.0967C24.7992 9.16214 26.2273 10.8009 27.0325 12.7595C27.8377 14.7182 27.975 16.8876 27.4234 18.9321C26.8717 20.9767 25.6617 22.7825 23.9806 24.0703C22.2995 25.358 20.2409 26.056 18.1232 26.0562Z" fill="white"/>
</g>
<defs>
<clipPath id="clip0_37_1118">
<rect width="33.8641" height="33.8641" fill="white" transform="translate(0.728149)"/>
</clipPath>
</defs>
</svg>
